<svg xmlns="http://www.w3.org/2000/svg" viewBox="0 0 32 32"><path fill="#91ca60" d="m20.062 10.448-4.423-4.423-6.364 6.364.111.111h9.491z"/><path fill="#70bb57" d="M19.428 9.814 18.743 11c-.179.309-.509.5-.866.5h-3.841c-.891 0-1.337-1.077-.707-1.707l3.039-3.039-.729-.729-6.343 6.343-.021.021.111.111h9.491l1.185-2.052-.634-.634z"/><path fill="#91ca60" d="m9.164 12.5 7.182-7.182-2.828-2.828-7.778 7.778L7.972 12.5z"/><path fill="#fecb5b" d="M17.082 13.125 9.975 6.018l.702-.702c.378-.378.586-.88.586-1.414 0-.535-.208-1.037-.586-1.414a2.003 2.003 0 0 0-2.828 0c-.378.378-.586.88-.586 1.415 0 .052.011.102.015.153-.564-.037-1.14.143-1.551.554a2.005 2.005 0 0 0 0 2.828c.378.378.88.586 1.415.586.534 0 1.036-.208 1.414-.586l.712-.712 7.107 7.107a.498.498 0 0 0 .708 0 .502.502 0 0 0-.001-.708zM8.263 3.903a.99.99 0 0 1 .293-.707A.998.998 0 1 1 9.97 4.61l-.702.701-.186-.186c-.009-.009-.022-.012-.032-.021l-.494-.494a.997.997 0 0 1-.293-.707zm-.414 2.828a1 1 0 1 1 0-1.414l.707.707-.707.707z"/><path fill="#eef2fa" d="M27.414 6.058a4.177 4.177 0 0 0-5.7 1.527L18.877 12.5h3.212l2.034-3.523a1.392 1.392 0 0 1 2.409 1.391 1.391 1.391 0 0 0 2.409 1.391 4.178 4.178 0 0 0-1.527-5.701z"/><path fill="#d5e5f2" d="M24.585 8.467a1.393 1.393 0 0 0-1.9.509L20.651 12.5h1.438l2.034-3.523c.122-.211.294-.372.489-.489-.009-.007-.017-.015-.027-.021zm2.829-2.409a4.131 4.131 0 0 0-2.791-.478c.463.083.922.229 1.353.478a4.176 4.176 0 0 1 1.527 5.7 1.388 1.388 0 0 1-.488.49c.01.006.017.014.027.019a1.39 1.39 0 0 0 1.9-.509 4.178 4.178 0 0 0-1.528-5.7z"/><path fill="#ef4a4c" d="m22.937 11.036-2.41-1.39 1.043-1.807 2.41 1.39zM25.614 5.514l.941 3.511a1.378 1.378 0 0 0-.531-.557 1.39 1.39 0 0 0-1.709.257l-.757-2.826a4.185 4.185 0 0 1 2.056-.385z"/><path fill="#ef4a4c" d="M26.433 10.589c.027-.075.058-.149.1-.221a1.39 1.39 0 0 0-.437-1.848l2.923-.783c.327.625.495 1.324.48 2.031l-3.066.821z"/><path fill="#e0313f" d="M22.964 8.642a1.37 1.37 0 0 0-.279.334l-.828 1.435 1.079.623.867-1.502.176-.305-1.015-.585zm1.659-3.062a4.27 4.27 0 0 1 1.107.366l-.11-.409a4.371 4.371 0 0 0-.997.043zm4.856 4.192c.002-.092.011-.184.007-.276-.003-.059-.002-.118-.008-.176a4.211 4.211 0 0 0-.111-.66c-.017-.068-.041-.135-.062-.202a4.186 4.186 0 0 0-.175-.468c-.031-.071-.06-.144-.095-.213-.007-.014-.017-.026-.024-.04l-1.285.344a4.18 4.18 0 0 1 .303 2.079l1.45-.388z"/><path fill="#ef4a4c" d="M24.935 26.147a10.986 10.986 0 0 0-.374-8.992l-.061-.122h-17l-.061.121a10.986 10.986 0 0 0-.374 8.992c.184.46.112 1.026-.274 1.336a1.133 1.133 0 0 0 .709 2.017h17a1.133 1.133 0 0 0 .709-2.017c-.387-.31-.458-.875-.274-1.335z"/><path fill="#ef4a4c" d="M7.065 25.147a10.952 10.952 0 0 1-.766-3.639 10.989 10.989 0 0 0 .756 4.609c.132-.298.136-.656.01-.97zM24.5 28.5h-17c-.448 0-.827-.266-1.011-.643A1.132 1.132 0 0 0 7.5 29.5h17a1.133 1.133 0 0 0 1.011-1.643 1.127 1.127 0 0 1-1.011.643zm.435-3.353c-.126.314-.121.672.01.97a10.97 10.97 0 0 0 .756-4.609 10.957 10.957 0 0 1-.766 3.639z"/><path fill="#e0313f" d="M24.633 17.033H7.367a1 1 0 0 1-1-1V13.5a1 1 0 0 1 1-1h17.267a1 1 0 0 1 1 1v2.533a1 1 0 0 1-1.001 1z"/><path fill="#e0313f" d="M24.935 26.147a10.986 10.986 0 0 0-.374-8.992l-.061-.122h-3l.061.121a10.986 10.986 0 0 1 .374 8.992c-.184.46-.112 1.026.274 1.336a1.133 1.133 0 0 1-.709 2.017h3a1.133 1.133 0 0 0 .709-2.017c-.387-.31-.458-.875-.274-1.335zM7.22 24.825a16.661 16.661 0 0 1-.628-5.322 16.718 16.718 0 0 0 .503 6.718 1.93 1.93 0 0 0 .125-1.396z"/><path fill="#e0313f" d="M25.6 28.098a1.135 1.135 0 0 0-.391-.616c-.386-.31-.458-.876-.274-1.336.151-.379.279-.764.386-1.153.006-.02.008-.041.014-.061.098-.361.178-.725.238-1.092.085-.736.128-1.476.128-2.217v-.116a10.973 10.973 0 0 0-1.141-4.354l-.06-.12h-3l.061.121a10.986 10.986 0 0 1 .374 8.992l-.005.014c-.436 1.302-1.414 2.339-2.788 2.339H7.5c-.448 0-.827-.266-1.011-.643A1.132 1.132 0 0 0 7.5 29.499h17a1.133 1.133 0 0 0 1.101-1.399l-.001-.002z"/><path fill="#c42c3e" d="M24.633 12.5h-3a1 1 0 0 1 1 1v2.533a1 1 0 0 1-1 1h3a1 1 0 0 0 1-1V13.5a1 1 0 0 0-1-1z"/><path fill="none" stroke="#004463" stroke-linecap="round" stroke-linejoin="round" stroke-miterlimit="10" d="M16 19.5v8m-3.464-6 6.928 4m0-4-6.928 4m0-4 6.928 4m-4.205-4.963.741.741.741-.741m0 5.926L16 25.722l-.741.741M12.536 21.5l6.928 4m-6.4-2.84 1.012-.271-.272-1.012m5.132 2.963-1.012.271.272 1.012m1.268-4.123-6.928 4m5.66-4.123-.272 1.012 1.012.271m-5.132 2.963.272-1.012-1.012-.271"/><circle cx="9.5" cy="27.504" r=".5" fill="#004463"/><circle cx="11.5" cy="27.504" r=".5" fill="#004463"/></svg>